<svg version="1.2" xmlns="http://www.w3.org/2000/svg" viewBox="0 0 790 490" width="790" height="490">
	<title>logo3-svg</title>
	<style>
		.s0 { fill: #a1a1aa } 
	</style>
	<g>
		<g>
			<path fill-rule="evenodd" class="s0" d="m129.8 148.7h52.9c19.3 0 35.7 4 49.3 11.8 13.6 7.9 24 19.5 31.4 34.8 7.3 15.3 11 34 11 55.9 0 21.9-3.7 40.6-11 55.8-7.3 15.2-17.8 26.8-31.4 34.8-13.6 8-30 12-49.3 12h-52.9zm41.3 168.2h11.8c16 0 28.2-5.4 36.6-16.3 8.4-10.9 12.6-27.3 12.6-49.3 0-22-4.2-38.1-12.6-49.1q-12.6-16.5-36.6-16.5h-11.8z"/>
			<path class="s0" d="m307.8 353.9v-205.2h128.3v37h-87.3v47.1h83.8v36.4h-83.8v47.7h89.6v37z"/>
		</g>
		<g>
			<path fill-rule="evenodd" class="s0" d="m182.7 354.4h-53.4v-206.2h53.4c19.3 0 35.9 4 49.5 11.9 13.6 7.9 24.2 19.7 31.6 35 7.3 15.3 11 34.2 11 56.1 0 21.9-3.7 40.8-11 56-7.3 15.2-18 27-31.5 35-13.6 8-30.3 12.1-49.5 12.1zm-52.4-1h52.4c19.1 0 35.6-4 49-11.9 13.4-7.9 23.9-19.5 31.2-34.6 7.3-15.1 10.9-33.8 10.9-55.6 0-21.8-3.7-40.5-10.9-55.7-7.2-15.1-17.7-26.8-31.2-34.6-13.4-7.8-29.9-11.8-49-11.8h-52.4zm40.4-36v-132.2h12.3c16.1 0 28.5 5.6 37 16.7 8.4 11 12.7 27.6 12.7 49.4 0 21.8-4.3 38.7-12.7 49.6-8.4 11-20.9 16.5-36.9 16.5zm0.9-1h11.3c15.8 0 27.9-5.4 36.2-16.1 8.3-10.7 12.5-27.2 12.5-49 0-21.8-4.2-38-12.5-48.8-8.2-10.8-20.4-16.3-36.2-16.3h-11.3z"/>
			<path fill-rule="evenodd" class="s0" d="m438.9 354.4h-131.6v-206.2h129.3v38h-87.3v46.1h83.8v37.4h-83.8v46.7h89.6zm-130.6-1h129.6v-36h-89.6v-48.7h83.8v-35.4h-83.8v-48.1h87.3v-36h-127.3z"/>
		</g>
		<g>
			<path class="s0" d="m642.1 351.6l-175.5-75.2v-57.6l175.5-75.2v47.7l-151.9 64.9v-17.2l151.9 64.9z"/>
		</g>
		<g>
			<path fill-rule="evenodd" class="s0" d="m642.6 352.4l-0.7-0.3-175.8-75.3v-58.3h0.3c0-0.1 176.2-75.6 176.2-75.6v48.8h-0.3c0 0.1-130.7 56-130.7 56l131 56zm-175.5-76.3l174.5 74.8v-46.6l-131.3-56.1-20.6 8.8v-18.7l20.6 8.8 131.3-56.1v-46.6l-174.5 74.8zm23.7-20.6l18.3-7.8-18.3-7.8z"/>
		</g>
	</g>
	<path fill-rule="evenodd" class="s0" d="m773.5 481.5h-759v-471h759zm-758-1h757v-469h-757z"/>
</svg>